<svg xmlns="http://www.w3.org/2000/svg" height="512" width="512" xmlns:v="https://vecta.io/nano"><path d="M244.261 205.128h-19.486v43.285h19.405c14.775 0 23.161-7.905 23.161-21.642 0-13.816-8.386-21.643-23.08-21.643zm61.012 71.637c0 6.627 5.75 10.939 14.774 10.939 11.5 0 20.124-7.268 20.124-17.489v-6.148l-18.767 1.196c-10.619.719-16.131 4.633-16.131 11.502zM447.666 77.111H64.334c-21.163 0-38.333 17.17-38.333 38.333v281.109c0 21.165 17.17 38.335 38.333 38.335h383.332c21.163 0 38.333-17.17 38.333-38.335V115.444c0-21.162-17.17-38.333-38.333-38.333zM134.372 191.632c4.232-5.112 11.579-8.785 17.489-9.024.72 6.948-1.995 13.815-6.148 18.927-4.234 4.951-10.941 8.863-17.65 8.305-.798-6.708 2.476-13.816 6.309-18.208zm34.1 94.475c-5.03 7.267-10.062 14.374-18.207 14.534-7.826.081-10.383-4.712-19.406-4.712-8.945 0-11.899 4.474-19.325 4.793-7.828.317-13.817-7.669-18.769-14.935-10.144-14.694-17.89-41.369-7.428-59.417 5.032-9.023 14.375-14.694 24.359-14.854 7.666-.16 14.692 5.112 19.405 5.112 4.632 0 12.937-6.07 22.681-5.511 3.754.239 14.614 1.357 21.642 11.739-.559.399-12.938 7.588-12.777 22.521.16 17.889 15.652 23.797 15.813 23.958-.161.48-2.477 8.466-7.988 16.772zm79.701-23.48h-23.398v37.216h-16.931v-108.93h40.889c21.084 0 35.857 14.535 35.857 35.778s-15.013 35.936-36.417 35.936zm108.213-17.009v54.304h-15.652v-13.097h-.32c-4.474 8.546-14.295 13.897-24.915 13.897-15.734 0-26.675-9.345-26.675-23.48 0-13.975 10.621-22.041 30.268-23.239l21.081-1.277v-5.989c0-8.945-5.749-13.736-16.13-13.736-8.466 0-14.693 4.392-15.974 11.1h-15.253c.479-14.056 13.737-24.357 31.705-24.357 19.325 0 31.944 10.143 31.944 25.875h-.079zm52.069 58.457c-6.788 19.088-14.535 25.396-31.066 25.396-1.279 0-5.511-.08-6.469-.397v-13.098c1.037.078 3.594.238 4.951.238 7.507 0 11.739-3.193 14.295-11.339l1.517-4.792-28.669-79.302h17.81l19.884 64.367h.319l19.888-64.367h17.168l-29.628 83.294z"/></svg>