<svg xmlns="http://www.w3.org/2000/svg" xmlns:xlink="http://www.w3.org/1999/xlink" width="500" zoomAndPan="magnify" viewBox="0 0 375 374.999991" height="500" preserveAspectRatio="xMidYMid meet" version="1.0"><defs><g/></defs><g fill="#061a40" fill-opacity="1"><g transform="translate(82.833758, 201.713164)"><g><path d="M 38.71875 0 L 50.480469 0 C 57.144531 0 61.558594 -4.507812 61.558594 -10.4375 L 61.558594 -34.308594 L 53.371094 -34.308594 L 53.371094 -10.4375 C 53.371094 -8.722656 52.050781 -7.449219 50.480469 -7.449219 L 38.71875 -7.449219 C 37.148438 -7.449219 35.875 -8.722656 35.875 -10.4375 L 35.875 -34.308594 L 27.640625 -34.308594 L 27.640625 -10.4375 C 27.640625 -8.722656 26.367188 -7.449219 24.800781 -7.449219 L 13.035156 -7.449219 C 11.46875 -7.449219 10.144531 -8.722656 10.144531 -10.4375 L 10.144531 -34.308594 L 1.960938 -34.308594 L 1.960938 -10.4375 C 1.960938 -4.507812 6.371094 0 13.035156 0 L 24.800781 0 C 27.542969 0 29.945312 -0.785156 31.757812 -2.109375 C 33.570312 -0.785156 35.972656 0 38.71875 0 Z M 38.71875 0 "/></g></g></g><g fill="#061a40" fill-opacity="1"><g transform="translate(146.339701, 201.713164)"><g><path d="M 13.035156 -13.476562 L 38.472656 -13.476562 L 38.472656 -10.4375 C 38.472656 -8.722656 37.148438 -7.449219 35.582031 -7.449219 L 1.960938 -7.449219 L 1.960938 0 L 35.582031 0 C 42.246094 0 46.65625 -4.507812 46.65625 -10.4375 L 46.65625 -34.308594 L 38.472656 -34.308594 L 38.472656 -20.925781 L 13.035156 -20.925781 C 11.46875 -20.925781 10.144531 -22.152344 10.144531 -23.867188 L 10.144531 -34.308594 L 1.960938 -34.308594 L 1.960938 -23.867188 C 1.960938 -17.988281 6.371094 -13.476562 13.035156 -13.476562 Z M 13.035156 -13.476562 "/></g></g></g><g fill="#061a40" fill-opacity="1"><g transform="translate(194.949183, 201.713164)"><g><path d="M 13.035156 0 L 46.65625 0 L 46.65625 -7.449219 L 13.035156 -7.449219 C 11.46875 -7.449219 10.144531 -8.722656 10.144531 -10.4375 L 10.144531 -34.308594 L 1.960938 -34.308594 L 1.960938 -10.046875 C 1.960938 -4.507812 6.371094 0 13.035156 0 Z M 13.035156 0 "/></g></g></g><g fill="#061a40" fill-opacity="1"><g transform="translate(243.558666, 201.713164)"><g><path d="M 1.960938 0 L 35.582031 0 C 42.246094 0 46.65625 -4.507812 46.65625 -10.4375 L 46.65625 -23.867188 C 46.65625 -29.796875 42.246094 -34.308594 35.582031 -34.308594 L 1.960938 -34.308594 Z M 10.144531 -7.449219 L 10.144531 -26.859375 L 35.582031 -26.859375 C 37.148438 -26.859375 38.472656 -25.582031 38.472656 -23.867188 L 38.472656 -10.4375 C 38.472656 -8.722656 37.148438 -7.449219 35.582031 -7.449219 Z M 10.144531 -7.449219 "/></g></g></g></svg>