<?xml version="1.0" ?><!DOCTYPE svg  PUBLIC '-//W3C//DTD SVG 1.1//EN'  'http://www.w3.org/Graphics/SVG/1.1/DTD/svg11.dtd'><svg height="512px" style="enable-background:new 0 0 512 512;" version="1.1" viewBox="0 0 512 512" width="512px" xml:space="preserve" xmlns="http://www.w3.org/2000/svg" xmlns:xlink="http://www.w3.org/1999/xlink"><g id="comp_x5F_23-apple-pay_x2C__Credit_card"><g><path d="M244.261,205.128h-19.486v43.285h19.405c14.775,0,23.161-7.905,23.161-21.642    C267.341,212.955,258.955,205.128,244.261,205.128z"/><path d="M305.273,276.765c0,6.627,5.75,10.939,14.774,10.939c11.5,0,20.124-7.268,20.124-17.489v-6.148l-18.767,1.196    C310.785,265.982,305.273,269.896,305.273,276.765z"/><path d="M447.666,77.111H64.334c-21.163,0-38.333,17.17-38.333,38.333v281.109c0,21.165,17.17,38.335,38.333,38.335h383.332    c21.163,0,38.333-17.17,38.333-38.335V115.444C485.999,94.282,468.829,77.111,447.666,77.111z M134.372,191.632    c4.232-5.112,11.579-8.785,17.489-9.024c0.72,6.948-1.995,13.815-6.148,18.927c-4.234,4.951-10.941,8.863-17.65,8.305    C127.265,203.132,130.539,196.024,134.372,191.632z M168.472,286.107c-5.03,7.267-10.062,14.374-18.207,14.534    c-7.826,0.081-10.383-4.712-19.406-4.712c-8.945,0-11.899,4.474-19.325,4.793c-7.828,0.317-13.817-7.669-18.769-14.935    c-10.144-14.694-17.89-41.369-7.428-59.417c5.032-9.023,14.375-14.694,24.359-14.854c7.666-0.16,14.692,5.112,19.405,5.112    c4.632,0,12.937-6.07,22.681-5.511c3.754,0.239,14.614,1.357,21.642,11.739c-0.559,0.399-12.938,7.588-12.777,22.521    c0.16,17.889,15.652,23.797,15.813,23.958C176.299,269.815,173.983,277.801,168.472,286.107z M248.173,262.627h-23.398v37.216    h-16.931v-108.93h40.889c21.084,0,35.857,14.535,35.857,35.778C284.59,247.934,269.577,262.627,248.173,262.627z M356.386,245.618    v54.304h-15.652v-13.097h-0.32c-4.474,8.546-14.295,13.897-24.915,13.897c-15.734,0-26.675-9.345-26.675-23.48    c0-13.975,10.621-22.041,30.268-23.239l21.081-1.277v-5.989c0-8.945-5.749-13.736-16.13-13.736c-8.466,0-14.693,4.392-15.974,11.1    h-15.253c0.479-14.056,13.737-24.357,31.705-24.357c19.325,0,31.944,10.143,31.944,25.875H356.386z M408.455,304.075    c-6.788,19.088-14.535,25.396-31.066,25.396c-1.279,0-5.511-0.08-6.469-0.397v-13.098c1.037,0.078,3.594,0.238,4.951,0.238    c7.507,0,11.739-3.193,14.295-11.339l1.517-4.792l-28.669-79.302h17.81l19.884,64.367h0.319l19.888-64.367h17.168L408.455,304.075    z"/></g></g><g id="Layer_1"/></svg>