<svg xmlns="http://www.w3.org/2000/svg" height="512" width="512" xmlns:v="https://vecta.io/nano"><path d="M174.781 257.757c0 9.743-7.747 17.17-17.569 17.17-7.346 0-12.777-4.152-12.777-11.978 0-9.745 7.588-17.571 17.329-17.571 7.427 0 13.017 4.553 13.017 12.379zM90.29 219.024h-3.755c-1.198 0-2.396.799-2.555 2.157l-3.435 21.322 6.549-.24c8.784 0 15.572-1.197 17.17-11.34 1.838-10.701-4.951-11.899-13.974-11.899zm226.804 0H313.5c-1.438 0-2.396.799-2.557 2.157l-3.354 21.322 6.39-.24c10.381 0 17.568-2.396 17.568-14.375-.079-8.464-7.665-8.864-14.453-8.864h0zm168.905-103.579v281.108c0 21.165-17.17 38.335-38.333 38.335H64.334c-21.163 0-38.333-17.17-38.333-38.335V115.445c0-21.164 17.17-38.334 38.333-38.334h383.332c21.163 0 38.333 17.171 38.333 38.334zM128.462 223.577c0-16.771-12.937-22.361-27.712-22.361H68.807c-1.997 0-3.993 1.597-4.152 3.754l-13.098 81.537c-.239 1.6.959 3.195 2.556 3.195h15.173c2.156 0 4.153-2.315 4.394-4.553l3.593-21.243c.8-5.749 10.542-3.753 14.375-3.753 22.838-.001 36.814-13.577 36.814-36.576h0zm67.244 7.027h-15.175c-3.034 0-3.194 4.392-3.354 6.549-4.632-6.788-11.341-7.986-18.927-7.986-19.566 0-34.5 17.17-34.5 36.096 0 15.574 9.743 25.717 25.315 25.717 7.187 0 16.132-3.913 21.163-9.504-.398 1.198-.798 3.754-.798 4.951 0 1.838.798 3.194 2.555 3.194h13.735c2.157 0 3.994-2.316 4.393-4.551l8.146-51.351c.24-1.518-.957-3.115-2.553-3.115h0zm32.342 78.184l50.872-73.951c.399-.399.399-.798.399-1.357 0-1.357-1.197-2.794-2.555-2.794h-15.336c-1.355 0-2.794.797-3.592 1.996l-21.163 31.146-8.784-29.947c-.64-1.757-2.396-3.194-4.394-3.194h-14.934c-1.358 0-2.555 1.437-2.555 2.794 0 .958 15.572 45.361 16.931 49.592-2.156 3.036-16.372 22.841-16.372 25.237 0 1.437 1.197 2.555 2.556 2.555h15.333c1.439-.08 2.796-.881 3.594-2.077h0zm127.219-85.211c0-16.771-12.938-22.361-27.711-22.361H295.85c-2.155 0-4.151 1.597-4.393 3.754l-12.938 81.458c-.159 1.599 1.04 3.194 2.558 3.194h16.37c1.599 0 2.795-1.199 3.195-2.555l3.594-23.161c.799-5.749 10.541-3.753 14.373-3.753 22.683-.001 36.658-13.577 36.658-36.576h0zm67.242 7.027h-15.173c-3.036 0-3.195 4.392-3.435 6.549-4.392-6.788-11.18-7.986-18.926-7.986-19.567 0-34.5 17.17-34.5 36.096 0 15.574 9.743 25.717 25.314 25.717 7.428 0 16.373-3.913 21.164-9.504-.239 1.198-.798 3.754-.798 4.951 0 1.838.798 3.194 2.555 3.194h13.815c2.156 0 3.993-2.316 4.394-4.551l8.146-51.351c.241-1.518-.958-3.115-2.556-3.115h0zm37.935-26.593c0-1.597-1.198-2.795-2.556-2.795h-14.775c-1.196 0-2.396.958-2.555 2.156l-12.938 83.056-.238.398c0 1.439 1.198 2.796 2.793 2.796h13.179c1.997 0 3.992-2.316 4.152-4.551l12.938-80.82v-.24zm-71.874 41.367c-9.744 0-17.33 7.747-17.33 17.571 0 7.744 5.589 11.978 12.936 11.978 9.583 0 17.33-7.348 17.33-17.17.081-7.826-5.51-12.379-12.936-12.379z"/></svg>