<?xml version="1.0" ?><!DOCTYPE svg  PUBLIC '-//W3C//DTD SVG 1.1//EN'  'http://www.w3.org/Graphics/SVG/1.1/DTD/svg11.dtd'><svg height="512px" style="enable-background:new 0 0 512 512;" version="1.1" viewBox="0 0 512 512" width="512px" xml:space="preserve" xmlns="http://www.w3.org/2000/svg" xmlns:xlink="http://www.w3.org/1999/xlink"><g id="comp_x5F_249-paypal_x2C__Credit_card"><g><path d="M174.781,257.757c0,9.743-7.747,17.17-17.569,17.17c-7.346,0-12.777-4.152-12.777-11.978    c0-9.745,7.588-17.571,17.329-17.571C169.191,245.378,174.781,249.931,174.781,257.757z M90.29,219.024h-3.755    c-1.198,0-2.396,0.799-2.555,2.157l-3.435,21.322l6.549-0.24c8.784,0,15.572-1.197,17.17-11.34    C106.102,220.222,99.313,219.024,90.29,219.024z M317.094,219.024H313.5c-1.438,0-2.396,0.799-2.557,2.157l-3.354,21.322    l6.39-0.24c10.381,0,17.568-2.396,17.568-14.375C331.468,219.424,323.882,219.024,317.094,219.024L317.094,219.024z     M485.999,115.445v281.108c0,21.165-17.17,38.335-38.333,38.335H64.334c-21.163,0-38.333-17.17-38.333-38.335V115.445    c0-21.164,17.17-38.334,38.333-38.334h383.332C468.829,77.111,485.999,94.282,485.999,115.445z M128.462,223.577    c0-16.771-12.937-22.361-27.712-22.361H68.807c-1.997,0-3.993,1.597-4.152,3.754l-13.098,81.537    c-0.239,1.6,0.959,3.195,2.556,3.195h15.173c2.156,0,4.153-2.315,4.394-4.553l3.593-21.243c0.8-5.749,10.542-3.753,14.375-3.753    C114.486,260.152,128.462,246.576,128.462,223.577L128.462,223.577z M195.706,230.604h-15.175c-3.034,0-3.194,4.392-3.354,6.549    c-4.632-6.788-11.341-7.986-18.927-7.986c-19.566,0-34.5,17.17-34.5,36.096c0,15.574,9.743,25.717,25.315,25.717    c7.187,0,16.132-3.913,21.163-9.504c-0.398,1.198-0.798,3.754-0.798,4.951c0,1.838,0.798,3.194,2.555,3.194h13.735    c2.157,0,3.994-2.316,4.393-4.551l8.146-51.351C198.499,232.201,197.302,230.604,195.706,230.604L195.706,230.604z     M228.048,308.788l50.872-73.951c0.399-0.399,0.399-0.798,0.399-1.357c0-1.357-1.197-2.794-2.555-2.794h-15.336    c-1.355,0-2.794,0.797-3.592,1.996l-21.163,31.146l-8.784-29.947c-0.64-1.757-2.396-3.194-4.394-3.194h-14.934    c-1.358,0-2.555,1.437-2.555,2.794c0,0.958,15.572,45.361,16.931,49.592c-2.156,3.036-16.372,22.841-16.372,25.237    c0,1.437,1.197,2.555,2.556,2.555h15.333C225.893,310.785,227.25,309.984,228.048,308.788L228.048,308.788z M355.267,223.577    c0-16.771-12.938-22.361-27.711-22.361H295.85c-2.155,0-4.151,1.597-4.393,3.754l-12.938,81.458    c-0.159,1.599,1.04,3.194,2.558,3.194h16.37c1.599,0,2.795-1.199,3.195-2.555l3.594-23.161c0.799-5.749,10.541-3.753,14.373-3.753    C341.292,260.152,355.267,246.576,355.267,223.577L355.267,223.577z M422.509,230.604h-15.173c-3.036,0-3.195,4.392-3.435,6.549    c-4.392-6.788-11.18-7.986-18.926-7.986c-19.567,0-34.5,17.17-34.5,36.096c0,15.574,9.743,25.717,25.314,25.717    c7.428,0,16.373-3.913,21.164-9.504c-0.239,1.198-0.798,3.754-0.798,4.951c0,1.838,0.798,3.194,2.555,3.194h13.815    c2.156,0,3.993-2.316,4.394-4.551l8.146-51.351C425.306,232.201,424.107,230.604,422.509,230.604L422.509,230.604z     M460.444,204.011c0-1.597-1.198-2.795-2.556-2.795h-14.775c-1.196,0-2.396,0.958-2.555,2.156l-12.938,83.056l-0.238,0.398    c0,1.439,1.198,2.796,2.793,2.796h13.179c1.997,0,3.992-2.316,4.152-4.551l12.938-80.82V204.011z M388.57,245.378    c-9.744,0-17.33,7.747-17.33,17.571c0,7.744,5.589,11.978,12.936,11.978c9.583,0,17.33-7.348,17.33-17.17    C401.587,249.931,395.996,245.378,388.57,245.378z"/></g></g><g id="Layer_1"/></svg>