<?xml version="1.0" ?><!DOCTYPE svg  PUBLIC '-//W3C//DTD SVG 1.1//EN'  'http://www.w3.org/Graphics/SVG/1.1/DTD/svg11.dtd'><svg height="512px" style="enable-background:new 0 0 512 512;" version="1.1" viewBox="0 0 512 512" width="512px" xml:space="preserve" xmlns="http://www.w3.org/2000/svg" xmlns:xlink="http://www.w3.org/1999/xlink"><g id="comp_x5F_363-visa_x2C__Credit_card"><g><path d="M401.426,236.274c0,0,6.07,29.708,7.428,35.937h-26.675c2.637-7.106,12.778-34.738,12.778-34.738    c-0.16,0.239,2.636-7.268,4.233-11.9L401.426,236.274L401.426,236.274z M485.999,115.445v281.108    c0,21.165-17.17,38.335-38.333,38.335H64.334c-21.163,0-38.333-17.17-38.333-38.335V115.445c0-21.164,17.17-38.334,38.333-38.334    h383.332C468.829,77.111,485.999,94.282,485.999,115.445z M147.789,316.056l50.471-123.944H164.32l-31.385,84.653l-3.435-17.171    l-11.181-57.021c-1.837-7.906-7.507-10.142-14.535-10.461H52.116l-0.56,2.476c12.618,3.195,23.879,7.827,33.701,13.656    l28.591,107.813H147.789z M223.178,316.214l20.124-124.103h-32.104l-20.045,124.103H223.178z M334.902,275.646    c0.16-14.135-8.465-24.916-26.913-33.781c-11.26-5.67-18.128-9.504-18.128-15.333c0.159-5.271,5.829-10.702,18.448-10.702    c10.461-0.24,18.128,2.237,23.877,4.711l2.876,1.358l4.392-26.833c-6.31-2.477-16.371-5.272-28.75-5.272    c-31.704,0-53.985,16.932-54.145,41.049c-0.24,17.809,15.971,27.713,28.11,33.701c12.379,6.068,16.611,10.063,16.611,15.413    c-0.159,8.307-10.063,12.14-19.247,12.14c-12.777,0-19.646-1.998-30.105-6.627l-4.234-1.999l-4.472,27.871    c7.505,3.435,21.402,6.47,35.777,6.631C312.701,318.052,334.663,301.359,334.902,275.646L334.902,275.646z M447.666,316.214    l-25.875-124.103h-24.837c-7.666,0-13.498,2.237-16.771,10.302l-47.678,113.8h33.702c0,0,5.511-15.332,6.708-18.606h41.209    c0.956,4.392,3.832,18.606,3.832,18.606H447.666z"/></g></g><g id="Layer_1"/></svg>