<svg xmlns="http://www.w3.org/2000/svg" height="512" width="512" xmlns:v="https://vecta.io/nano"><path d="M401.426 236.274l7.428 35.937h-26.675l12.778-34.738c-.16.239 2.636-7.268 4.233-11.9l2.236 10.701h0zm84.573-120.829v281.108c0 21.165-17.17 38.335-38.333 38.335H64.334c-21.163 0-38.333-17.17-38.333-38.335V115.445c0-21.164 17.17-38.334 38.333-38.334h383.332c21.163 0 38.333 17.171 38.333 38.334zm-338.21 200.611l50.471-123.944h-33.94l-31.385 84.653-3.435-17.171-11.181-57.021c-1.837-7.906-7.507-10.142-14.535-10.461H52.116l-.56 2.476c12.618 3.195 23.879 7.827 33.701 13.656l28.591 107.813h33.941zm75.389.158l20.124-124.103h-32.104l-20.045 124.103h32.025zm111.724-40.568c.16-14.135-8.465-24.916-26.913-33.781-11.26-5.67-18.128-9.504-18.128-15.333.159-5.271 5.829-10.702 18.448-10.702 10.461-.24 18.128 2.237 23.877 4.711l2.876 1.358 4.392-26.833c-6.31-2.477-16.371-5.272-28.75-5.272-31.704 0-53.985 16.932-54.145 41.049-.24 17.809 15.971 27.713 28.11 33.701 12.379 6.068 16.611 10.063 16.611 15.413-.159 8.307-10.063 12.14-19.247 12.14-12.777 0-19.646-1.998-30.105-6.627l-4.234-1.999-4.472 27.871c7.505 3.435 21.402 6.47 35.777 6.631 33.702.079 55.664-16.614 55.903-42.327h0zm112.764 40.568l-25.875-124.103h-24.837c-7.666 0-13.498 2.237-16.771 10.302l-47.678 113.8h33.702l6.708-18.606h41.209l3.832 18.606h29.71z"/></svg>